# xmcd CD database generated by RipIT
#
# Track frame offsets:
# 150
# 31890
# 54888
# 75209
# 95741
# 114225
# 154020
# 183352
# 205188
# 224268
# 238284
# 262308
# 284313
# 303500
#
# Disc length: 4276 seconds
#
# Revision: 2
# Processed by: cddbd v1.5.2PL0 Copyright (c) Steve Scherf et al.
# Submitted via: RipIT 3.9.0 www.suwald.com/ripit/ripit.html on 2010-11-16 at 22:33
#
DISCID=bd10b20e
DTITLE=Rufus Beck - Armistead Maupin - Stadtgeschichten CD3
DYEAR=2001
DGENRE=Other
TTITLE0=29 Stadtgeschichten CD3
TTITLE1=30 Stadtgeschichten CD3
TTITLE2=31 Stadtgeschichten CD3
TTITLE3=32 Stadtgeschichten CD3
TTITLE4=33 Stadtgeschichten CD3
TTITLE5=34 Stadtgeschichten CD3
TTITLE6=35 Stadtgeschichten CD3
TTITLE7=36 Stadtgeschichten CD3
TTITLE8=37 Stadtgeschichten CD3
TTITLE9=38 Stadtgeschichten CD3
TTITLE10=39 Stadtgeschichten CD3
TTITLE11=40 Stadtgeschichten CD3
TTITLE12=41 Stadtgeschichten CD3
TTITLE13=42 Stadtgeschichten CD3
EXTD=YEAR: 2001\n
EXTT0=
EXTT1=
EXTT2=
EXTT3=
EXTT4=
EXTT5=
EXTT6=
EXTT7=
EXTT8=
EXTT9=
EXTT10=
EXTT11=
EXTT12=
EXTT13=
PLAYORDER=
